<svg width="147" height="24" viewBox="0 0 147 24" fill="none" xmlns="http://www.w3.org/2000/svg">
<path d="M3.67 2.15V23H0.25V2.15H3.67ZM9.54016 23.21C8.92016 23.21 8.40016 23 7.98016 22.58C7.56016 22.16 7.35016 21.64 7.35016 21.02C7.35016 20.4 7.56016 19.88 7.98016 19.46C8.40016 19.04 8.92016 18.83 9.54016 18.83C10.1402 18.83 10.6502 19.04 11.0702 19.46C11.4902 19.88 11.7002 20.4 11.7002 21.02C11.7002 21.64 11.4902 22.16 11.0702 22.58C10.6502 23 10.1402 23.21 9.54016 23.21ZM37.3565 2.15V23H33.9365V8.72L27.5765 23H25.2065L18.8165 8.72V23H15.3965V2.15H19.0865L26.4065 18.5L33.6965 2.15H37.3565ZM43.2316 23.21C42.6116 23.21 42.0916 23 41.6716 22.58C41.2516 22.16 41.0416 21.64 41.0416 21.02C41.0416 20.4 41.2516 19.88 41.6716 19.46C42.0916 19.04 42.6116 18.83 43.2316 18.83C43.8316 18.83 44.3416 19.04 44.7616 19.46C45.1816 19.88 45.3916 20.4 45.3916 21.02C45.3916 21.64 45.1816 22.16 44.7616 22.58C44.3416 23 43.8316 23.21 43.2316 23.21ZM62.8809 23.27C61.5809 23.27 60.4109 23.04 59.3709 22.58C58.3509 22.1 57.5409 21.46 56.9409 20.66C56.3409 19.84 56.0209 18.93 55.9809 17.93H59.5209C59.5809 18.63 59.9109 19.22 60.5109 19.7C61.1309 20.16 61.9009 20.39 62.8209 20.39C63.7809 20.39 64.5209 20.21 65.0409 19.85C65.5809 19.47 65.8509 18.99 65.8509 18.41C65.8509 17.79 65.5509 17.33 64.9509 17.03C64.3709 16.73 63.4409 16.4 62.1609 16.04C60.9209 15.7 59.9109 15.37 59.1309 15.05C58.3509 14.73 57.6709 14.24 57.0909 13.58C56.5309 12.92 56.2509 12.05 56.2509 10.97C56.2509 10.09 56.5109 9.29 57.0309 8.57C57.5509 7.83 58.2909 7.25 59.2509 6.83C60.2309 6.41 61.3509 6.2 62.6109 6.2C64.4909 6.2 66.0009 6.68 67.1409 7.64C68.3009 8.58 68.9209 9.87 69.0009 11.51H65.5809C65.5209 10.77 65.2209 10.18 64.6809 9.74C64.1409 9.3 63.4109 9.08 62.4909 9.08C61.5909 9.08 60.9009 9.25 60.4209 9.59C59.9409 9.93 59.7009 10.38 59.7009 10.94C59.7009 11.38 59.8609 11.75 60.1809 12.05C60.5009 12.35 60.8909 12.59 61.3509 12.77C61.8109 12.93 62.4909 13.14 63.3909 13.4C64.5909 13.72 65.5709 14.05 66.3309 14.39C67.1109 14.71 67.7809 15.19 68.3409 15.83C68.9009 16.47 69.1909 17.32 69.2109 18.38C69.2109 19.32 68.9509 20.16 68.4309 20.9C67.9109 21.64 67.1709 22.22 66.2109 22.64C65.2709 23.06 64.1609 23.27 62.8809 23.27ZM87.8763 6.47V23H84.4563V21.05C83.9163 21.73 83.2063 22.27 82.3263 22.67C81.4663 23.05 80.5463 23.24 79.5663 23.24C78.2663 23.24 77.0963 22.97 76.0563 22.43C75.0363 21.89 74.2263 21.09 73.6263 20.03C73.0463 18.97 72.7563 17.69 72.7563 16.19V6.47H76.1463V15.68C76.1463 17.16 76.5163 18.3 77.2563 19.1C77.9963 19.88 79.0063 20.27 80.2863 20.27C81.5663 20.27 82.5763 19.88 83.3163 19.1C84.0763 18.3 84.4563 17.16 84.4563 15.68V6.47H87.8763ZM95.8087 0.8V23H92.3887V0.8H95.8087ZM104.289 9.26V18.41C104.289 19.03 104.429 19.48 104.709 19.76C105.009 20.02 105.509 20.15 106.209 20.15H108.309V23H105.609C104.069 23 102.889 22.64 102.069 21.92C101.249 21.2 100.839 20.03 100.839 18.41V9.26H98.8888V6.47H100.839V2.36H104.289V6.47H108.309V9.26H104.289ZM110.321 14.66C110.321 13 110.661 11.53 111.341 10.25C112.041 8.97 112.981 7.98 114.161 7.28C115.361 6.56 116.681 6.2 118.121 6.2C119.421 6.2 120.551 6.46 121.511 6.98C122.491 7.48 123.271 8.11 123.851 8.87V6.47H127.301V23H123.851V20.54C123.271 21.32 122.481 21.97 121.481 22.49C120.481 23.01 119.341 23.27 118.061 23.27C116.641 23.27 115.341 22.91 114.161 22.19C112.981 21.45 112.041 20.43 111.341 19.13C110.661 17.81 110.321 16.32 110.321 14.66ZM123.851 14.72C123.851 13.58 123.611 12.59 123.131 11.75C122.671 10.91 122.061 10.27 121.301 9.83C120.541 9.39 119.721 9.17 118.841 9.17C117.961 9.17 117.141 9.39 116.381 9.83C115.621 10.25 115.001 10.88 114.521 11.72C114.061 12.54 113.831 13.52 113.831 14.66C113.831 15.8 114.061 16.8 114.521 17.66C115.001 18.52 115.621 19.18 116.381 19.64C117.161 20.08 117.981 20.3 118.841 20.3C119.721 20.3 120.541 20.08 121.301 19.64C122.061 19.2 122.671 18.56 123.131 17.72C123.611 16.86 123.851 15.86 123.851 14.72ZM140.133 6.2C141.433 6.2 142.593 6.47 143.613 7.01C144.653 7.55 145.463 8.35 146.043 9.41C146.623 10.47 146.913 11.75 146.913 13.25V23H143.523V13.76C143.523 12.28 143.153 11.15 142.413 10.37C141.673 9.57 140.663 9.17 139.383 9.17C138.103 9.17 137.083 9.57 136.323 10.37C135.583 11.15 135.213 12.28 135.213 13.76V23H131.793V6.47H135.213V8.36C135.773 7.68 136.483 7.15 137.343 6.77C138.223 6.39 139.153 6.2 140.133 6.2Z" fill="white"/>
</svg>
